<svg width="20" height="13" viewBox="0 0 20 13" fill="none" xmlns="http://www.w3.org/2000/svg">
<path d="M19.1873 0.0216165C19.1288 0.0371264 19.0735 0.0606465 19.0227 0.0909329L9.33536 5.62655C9.28237 5.65559 9.2331 5.69225 9.18937 5.73603C9.13314 5.7922 9.08866 5.85749 9.05697 5.92808C8.97882 6.10128 8.98323 6.29427 9.05697 6.45858C9.08866 6.52917 9.13314 6.59447 9.18937 6.65063C9.2331 6.69442 9.28237 6.73108 9.33536 6.76012L19.0227 12.2957C19.0735 12.326 19.1288 12.3495 19.1873 12.3651C19.2639 12.3854 19.3424 12.3912 19.4191 12.3832C19.5127 12.3738 19.6004 12.3444 19.6779 12.2993C19.7555 12.2544 19.8246 12.1928 19.8793 12.1161C19.9242 12.0535 19.9581 11.9825 19.9784 11.906C19.994 11.8475 20.001 11.7878 19.9999 11.7286V0.658026C20.001 0.598897 19.994 0.539215 19.9784 0.480678C19.9581 0.404099 19.9241 0.333093 19.8792 0.270443C19.8246 0.193851 19.7555 0.132288 19.6779 0.0873623C19.6004 0.0422923 19.5127 0.0128671 19.4191 0.00341248C19.3424 -0.00448976 19.2639 0.00123319 19.1873 0.0216165Z" fill="#4C3221"/>
<path d="M10.1873 0.0216165C10.1288 0.0371264 10.0735 0.0606465 10.0227 0.0909329L0.335358 5.62655C0.282366 5.65559 0.233098 5.69225 0.189369 5.73603C0.133138 5.7922 0.0886569 5.85749 0.0569744 5.92808C-0.021178 6.10128 -0.016773 6.29427 0.0569744 6.45858C0.0886569 6.52917 0.133138 6.59447 0.189369 6.65063C0.233098 6.69442 0.282366 6.73108 0.335358 6.76012L10.0227 12.2957C10.0735 12.326 10.1288 12.3495 10.1873 12.3651C10.2639 12.3854 10.3424 12.3912 10.4191 12.3832C10.5127 12.3738 10.6004 12.3444 10.6779 12.2993C10.7555 12.2544 10.8246 12.1928 10.8793 12.1161C10.9242 12.0535 10.9581 11.9825 10.9784 11.906C10.994 11.8475 11.001 11.7878 10.9999 11.7286V0.658026C11.001 0.598897 10.994 0.539215 10.9784 0.480678C10.9581 0.404099 10.9241 0.333093 10.8792 0.270443C10.8246 0.193851 10.7555 0.132288 10.6779 0.0873623C10.6004 0.0422923 10.5127 0.0128671 10.4191 0.00341248C10.3424 -0.00448976 10.2639 0.00123319 10.1873 0.0216165Z" fill="#8B5837"/>
</svg>
