<svg width="20" height="13" viewBox="0 0 20 13" fill="none" xmlns="http://www.w3.org/2000/svg">
<path d="M0.812662 0.0216165C0.871219 0.0371264 0.926517 0.0606465 0.977312 0.0909329L10.6646 5.62655C10.7176 5.65559 10.7669 5.69225 10.8106 5.73603C10.8669 5.7922 10.9113 5.85749 10.943 5.92808C11.0212 6.10128 11.0168 6.29427 10.943 6.45858C10.9113 6.52917 10.8669 6.59447 10.8106 6.65063C10.7669 6.69442 10.7176 6.73108 10.6646 6.76012L0.977332 12.2957C0.926531 12.326 0.871226 12.3495 0.812662 12.3651C0.736088 12.3854 0.657555 12.3912 0.580863 12.3832C0.48727 12.3738 0.399571 12.3444 0.322091 12.2993C0.244471 12.2544 0.175371 12.1928 0.120703 12.1161C0.0758424 12.0535 0.0418878 11.9825 0.0216165 11.906C0.00603046 11.8475 -0.000983824 11.7878 0.000110653 11.7286V0.658026C-0.000983824 0.598897 0.0060305 0.539215 0.0216165 0.480678C0.0419 0.404099 0.0758829 0.333093 0.120783 0.270443C0.175439 0.193851 0.244509 0.132288 0.322091 0.0873623C0.399587 0.0422923 0.487306 0.0128671 0.580921 0.00341248C0.657595 -0.00448976 0.736108 0.00123319 0.812662 0.0216165Z" fill="#4C3221"/>
<path d="M9.81266 0.0216165C9.87122 0.0371264 9.92652 0.0606465 9.97731 0.0909329L19.6646 5.62655C19.7176 5.65559 19.7669 5.69225 19.8106 5.73603C19.8669 5.7922 19.9113 5.85749 19.943 5.92808C20.0212 6.10128 20.0168 6.29427 19.943 6.45858C19.9113 6.52917 19.8669 6.59447 19.8106 6.65063C19.7669 6.69442 19.7176 6.73108 19.6646 6.76012L9.97733 12.2957C9.92653 12.326 9.87123 12.3495 9.81266 12.3651C9.73609 12.3854 9.65756 12.3912 9.58086 12.3832C9.48727 12.3738 9.39957 12.3444 9.32209 12.2993C9.24447 12.2544 9.17537 12.1928 9.1207 12.1161C9.07584 12.0535 9.04189 11.9825 9.02162 11.906C9.00603 11.8475 8.99902 11.7878 9.00011 11.7286V0.658026C8.99902 0.598897 9.00603 0.539215 9.02162 0.480678C9.0419 0.404099 9.07588 0.333093 9.12078 0.270443C9.17544 0.193851 9.24451 0.132288 9.32209 0.0873623C9.39959 0.0422923 9.48731 0.0128671 9.58092 0.00341248C9.6576 -0.00448976 9.73611 0.00123319 9.81266 0.0216165Z" fill="#8B5837"/>
</svg>
