<svg width="71" height="71" viewBox="0 0 71 71" fill="none" xmlns="http://www.w3.org/2000/svg">
<path fill-rule="evenodd" clip-rule="evenodd" d="M35.5 71C55.1061 71 71 55.1061 71 35.5C71 15.8939 55.1061 0 35.5 0C15.8939 0 0 15.8939 0 35.5C0 55.1061 15.8939 71 35.5 71ZM26.4537 20.9867C26.3752 20.9398 26.2897 20.9035 26.1991 20.8795C26.0807 20.848 25.9593 20.8391 25.8407 20.8513C25.6959 20.8659 25.5602 20.9115 25.4403 20.9812C25.3204 21.0506 25.2135 21.1459 25.129 21.2643C25.0596 21.3612 25.007 21.471 24.9756 21.5895C24.9515 21.68 24.9407 21.7723 24.9424 21.8638V49.9166C24.9407 50.008 24.9515 50.1003 24.9756 50.1909C25.007 50.3092 25.0595 50.419 25.1289 50.5158C25.2134 50.6344 25.3203 50.7297 25.4403 50.7992C25.5602 50.8689 25.6958 50.9144 25.8406 50.929C25.9592 50.9412 26.0807 50.9324 26.1991 50.9009C26.2897 50.8769 26.3752 50.8405 26.4538 50.7936L51.0008 36.7668C51.0827 36.7219 51.1589 36.6652 51.2266 36.5975C51.3135 36.5106 51.3823 36.4096 51.4313 36.3004C51.5454 36.0463 51.5522 35.7478 51.4313 35.4799C51.3823 35.3707 51.3135 35.2698 51.2266 35.1829C51.1589 35.1152 51.0827 35.0585 51.0008 35.0136L26.4537 20.9867Z" fill="#4C3221"/>
</svg>
