<svg width="71" height="71" viewBox="0 0 71 71" fill="none" xmlns="http://www.w3.org/2000/svg">
<path fill-rule="evenodd" clip-rule="evenodd" d="M35.5 71C55.1061 71 71 55.1061 71 35.5C71 15.8939 55.1061 0 35.5 0C15.8939 0 0 15.8939 0 35.5C0 55.1061 15.8939 71 35.5 71ZM32 25C32 22.7909 30.2091 21 28 21C25.7909 21 24 22.7909 24 25V47C24 49.2091 25.7909 51 28 51C30.2091 51 32 49.2091 32 47V25ZM47.7143 25C47.7143 22.7909 45.9234 21 43.7143 21C41.5051 21 39.7143 22.7909 39.7143 25V47C39.7143 49.2091 41.5051 51 43.7143 51C45.9234 51 47.7143 49.2091 47.7143 47V25Z" fill="#4C3221"/>
</svg>
