<svg width="16" height="15" viewBox="0 0 16 15" fill="none" xmlns="http://www.w3.org/2000/svg">
<path d="M3.70374 4.26079C2.91663 4.74413 2.01111 4.99999 1.0874 4.99999H0.199951C0.0895996 4.99999 0 5.08952 0 5.2V9.79997C0 9.91045 0.0895996 9.99999 0.199951 9.99999H1.0874C2.01111 9.99999 2.91663 10.2558 3.70374 10.7392L10.3379 14.8129C10.4711 14.8948 10.6426 14.7989 10.6426 14.6425V0.357469C10.6426 0.201097 10.4711 0.105211 10.3379 0.187059L3.70374 4.26079Z" fill="#4C3221"/>
<path d="M16 7.49999C16 5.84313 14.6569 4.49999 13 4.49999V10.5C14.6569 10.5 16 9.15685 16 7.49999Z" fill="#8B5837"/>
</svg>
